# xmcd
#
# Track frame offsets:
#	150
#	20937
#	43340
#	65757
#	78331
#	94479
#	111609
#	119634
#	142678
#	167352
#
# Disc length: 2526 seconds
#
# Revision: 1
# Processed by: cddbd v1.5.2PL0 Copyright (c) Steve Scherf et al.
# Submitted via: audiograbber 1.83.01
#
DISCID=9309dc0a
DTITLE=The Shaka Bros. - Bayou Boogie
DYEAR=1900
DGENRE=
TTITLE0=Have A Good Time
TTITLE1=Special Rider Blues
TTITLE2=Baby I'm Crazy Bout You
TTITLE3=Ain't Nobody's Business
TTITLE4=Poor Man But A Good Man
TTITLE5=Last Fair Deal
TTITLE6=La Cucaracha
TTITLE7=Trouble In Houston
TTITLE8=Going To Brownsville
TTITLE9=Bottle Up And Go
EXTD=
EXTT0=
EXTT1=
EXTT2=
EXTT3=
EXTT4=
EXTT5=
EXTT6=
EXTT7=
EXTT8=
EXTT9=
PLAYORDER=
